<svg xmlns="http://www.w3.org/2000/svg" width="900" height="506" viewBox="0 0 900 506" role="img" aria-labelledby="title desc"><title id="title">UNDER REVIEW</title><desc id="desc">A manuscript approaches a blue journal gate. Write. Submit. Revise. Hope. Repeat.</desc><rect width="900" height="506" fill="#e8f2fc"/><path d="M40 381 570 276 874 388 344 490Z" fill="#dbe7f4"/><ellipse cx="657" cy="405" rx="100" ry="20" fill="#c5d8ed"/><path d="M579 172 723 194 723 397 579 375Z" fill="#416fad"/><path d="M723 194 746 179 746 383 723 397Z" fill="#234877"/><path d="M579 172 602 158 746 179 723 194Z" fill="#7c9bc4"/><path d="M615 231C649 203 692 238 691 280C716 315 675 351 648 327C610 335 603 298 620 279C597 258 601 247 615 231Z" fill="#f5f9fd"/><path d="M382 310 Q447 225 551 269" stroke="#7c9bc4" stroke-width="3" stroke-dasharray="7 9" fill="none"/><ellipse cx="417" cy="391" rx="57" ry="12" fill="#c5d8ed"/><path d="M382 270C407 245 444 256 448 282C480 289 469 337 440 344C420 367 382 347 381 326C353 308 361 283 382 270Z" fill="#52adc8"/><path d="M385 278C406 260 431 269 435 281" fill="none" stroke="#a9d8e5" stroke-width="8" stroke-linecap="round"/><g fill="#234877"><text x="65" y="96" font-family="Arial,sans-serif" font-size="15" letter-spacing="4">AN ACADEMIC PUBLISHING GAME</text><text x="61" y="166" font-family="Georgia,serif" font-size="58">UNDER REVIEW</text><text x="65" y="208" font-family="Georgia,serif" font-size="24" font-style="italic" fill="#45658b">Write. Submit. Revise. Hope. Repeat.</text></g></svg>
